<?xml version="1.0" standalone="no"?>
<!DOCTYPE svg PUBLIC "-//W3C//DTD SVG 1.1//EN" "http://www.w3.org/Graphics/SVG/1.1/DTD/svg11.dtd">
<svg version="1.1" xmlns="http://www.w3.org/2000/svg" viewBox="0 0 984.8486328124998 1346.060587565109" width="984.8486328124998" height="1346.060587565109"><!-- svg-source:excalidraw --><metadata></metadata><defs><style class="style-fonts">
      </style></defs><g transform="translate(737.2727457682292 63.33333333333576) rotate(0 -317.57573445638025 524.8485310872384)" stroke="none"><path fill="#0c8599" d="M 6.50,0.72 Q 6.50,0.72 6.05,7.02 5.61,13.33 3.92,20.66 2.22,28.00 -2.48,37.09 -7.18,46.18 -11.15,55.10 -15.13,64.03 -21.94,75.85 -28.75,87.67 -35.05,99.43 -41.36,111.19 -46.21,119.75 -51.06,128.31 -56.66,137.56 -62.25,146.81 -68.13,156.30 -74.00,165.80 -79.15,176.54 -84.31,187.28 -90.82,199.05 -97.32,210.82 -102.18,219.29 -107.03,227.75 -111.10,236.06 -115.17,244.36 -119.03,252.15 -122.89,259.94 -128.87,269.09 -134.85,278.24 -139.95,288.70 -145.06,299.16 -152.30,310.92 -159.54,322.68 -166.01,333.79 -172.49,344.91 -182.23,361.52 -191.97,378.12 -201.73,393.61 -211.49,409.10 -219.04,422.51 -226.58,435.92 -233.99,449.31 -241.40,462.71 -249.40,478.11 -257.40,493.51 -272.78,517.70 -288.15,541.89 -299.47,561.07 -310.79,580.26 -319.81,595.42 -328.82,610.58 -336.23,621.35 -343.64,632.12 -349.43,642.05 -355.23,651.97 -364.08,665.44 -372.93,678.91 -379.34,690.67 -385.75,702.43 -393.52,713.99 -401.30,725.55 -410.12,738.73 -418.94,751.91 -429.61,769.27 -440.28,786.64 -449.75,801.09 -459.23,815.55 -466.75,826.58 -474.27,837.61 -481.63,848.54 -488.99,859.47 -495.47,871.57 -501.95,883.67 -508.38,893.30 -514.80,902.93 -521.71,912.58 -528.62,922.23 -534.36,929.84 -540.10,937.45 -544.45,944.08 -548.80,950.72 -556.47,960.03 -564.14,969.34 -572.25,978.81 -580.36,988.29 -587.98,997.18 -595.61,1006.07 -601.54,1013.90 -607.47,1021.73 -612.84,1028.62 -618.22,1035.52 -621.51,1040.70 -624.80,1045.89 -626.04,1048.26 -627.27,1050.62 -628.07,1051.40 -628.87,1052.19 -629.87,1052.67 -630.88,1053.16 -631.98,1053.30 -633.09,1053.44 -634.19,1053.22 -635.28,1053.00 -636.25,1052.44 -637.22,1051.89 -637.95,1051.05 -638.69,1050.21 -639.12,1049.18 -639.56,1048.15 -639.64,1047.04 -639.72,1045.92 -639.44,1044.84 -639.16,1043.76 -638.55,1042.82 -637.94,1041.89 -637.06,1041.20 -636.19,1040.51 -635.13,1040.13 -634.08,1039.75 -632.97,1039.73 -631.85,1039.71 -630.79,1040.05 -629.72,1040.39 -628.82,1041.05 -627.92,1041.71 -627.27,1042.62 -626.63,1043.53 -626.31,1044.60 -626.00,1045.67 -626.04,1046.79 -626.08,1047.91 -626.47,1048.95 -626.87,1050.00 -627.57,1050.86 -628.28,1051.72 -629.23,1052.32 -630.17,1052.91 -631.26,1053.17 -632.35,1053.43 -633.46,1053.33 -634.57,1053.23 -635.59,1052.78 -636.61,1052.33 -637.44,1051.57 -638.26,1050.82 -638.80,1049.84 -639.34,1048.87 -639.54,1047.77 -639.74,1046.67 -639.58,1045.56 -639.42,1044.46 -638.92,1043.46 -638.41,1042.47 -638.41,1042.47 -638.41,1042.47 -636.53,1040.57 -634.65,1038.68 -630.61,1033.85 -626.57,1029.01 -621.25,1022.17 -615.93,1015.33 -609.82,1007.23 -603.71,999.14 -596.11,990.24 -588.51,981.33 -580.50,971.91 -572.48,962.48 -565.16,953.55 -557.84,944.62 -553.16,937.87 -548.49,931.12 -542.82,923.61 -537.16,916.11 -530.35,906.60 -523.54,897.09 -517.37,887.89 -511.21,878.69 -504.46,866.15 -497.71,853.61 -490.33,842.65 -482.95,831.69 -475.48,820.74 -468.02,809.79 -458.62,795.46 -449.23,781.14 -438.45,763.60 -427.68,746.06 -418.84,732.87 -410.01,719.68 -402.49,708.53 -394.97,697.39 -388.34,685.26 -381.71,673.13 -373.00,659.90 -364.30,646.67 -358.30,636.42 -352.30,626.16 -345.08,615.69 -337.86,605.21 -328.85,590.06 -319.84,574.92 -308.43,555.58 -297.02,536.25 -281.87,512.45 -266.73,488.66 -258.66,473.14 -250.60,457.62 -243.17,444.19 -235.75,430.76 -228.07,417.13 -220.39,403.49 -210.72,388.14 -201.05,372.80 -191.32,356.20 -181.59,339.61 -175.05,328.38 -168.51,317.15 -161.52,305.83 -154.53,294.52 -149.11,283.49 -143.70,272.46 -138.04,263.85 -132.38,255.23 -128.54,247.46 -124.71,239.70 -120.50,231.08 -116.29,222.46 -111.51,214.05 -106.72,205.65 -100.39,194.13 -94.06,182.61 -88.69,171.35 -83.32,160.08 -77.54,150.60 -71.77,141.12 -66.36,131.96 -60.94,122.81 -56.29,114.29 -51.64,105.78 -45.43,93.77 -39.22,81.76 -32.98,70.44 -26.73,59.12 -22.95,49.68 -19.17,40.24 -15.47,32.36 -11.77,24.47 -10.08,18.11 -8.40,11.75 -7.45,5.51 -6.50,-0.72 -6.32,-1.48 -6.13,-2.25 -5.78,-2.95 -5.42,-3.66 -4.90,-4.25 -4.38,-4.85 -3.74,-5.30 -3.09,-5.76 -2.36,-6.04 -1.62,-6.33 -0.84,-6.43 -0.06,-6.54 0.71,-6.45 1.50,-6.36 2.24,-6.09 2.98,-5.82 3.63,-5.38 4.28,-4.94 4.81,-4.35 5.34,-3.77 5.71,-3.07 6.09,-2.38 6.28,-1.61 6.48,-0.85 6.49,-0.06 6.50,0.72 6.50,0.72 L 6.50,0.72 Z"></path></g><g transform="translate(746.9698079427087 73.0303955078125) rotate(0 -215.75759887695358 560.0001017252616)" stroke="none"><path fill="#0c8599" d="M -2.69,-6.28 Q -2.69,-6.28 7.14,-10.27 16.99,-14.25 33.92,-20.13 50.85,-26.02 64.28,-30.54 77.71,-35.07 92.54,-39.76 107.36,-44.45 118.57,-47.82 129.77,-51.19 138.86,-53.34 147.95,-55.49 158.05,-57.77 168.15,-60.05 176.16,-61.21 184.17,-62.37 190.04,-63.82 195.90,-65.27 203.32,-67.38 210.74,-69.49 217.88,-70.55 225.01,-71.61 229.49,-67.99 233.96,-64.37 234.82,-60.00 235.67,-55.62 234.95,-51.33 234.23,-47.05 232.33,-41.83 230.43,-36.61 226.36,-26.81 222.29,-17.01 217.45,-6.36 212.61,4.29 210.14,10.29 207.66,16.30 204.31,27.89 200.96,39.48 195.76,53.27 190.56,67.07 185.49,79.80 180.42,92.53 176.82,101.39 173.21,110.26 170.29,118.74 167.37,127.21 163.25,137.95 159.13,148.68 153.16,163.02 147.18,177.37 142.52,187.68 137.85,197.99 133.02,207.34 128.19,216.70 123.37,226.17 118.56,235.65 114.42,242.71 110.28,249.77 105.07,259.48 99.87,269.19 94.75,277.68 89.64,286.16 83.99,295.31 78.34,304.46 73.88,311.27 69.42,318.08 61.95,329.89 54.48,341.69 47.74,351.67 41.01,361.66 33.98,372.14 26.95,382.62 21.90,390.51 16.84,398.40 11.15,406.71 5.45,415.03 -1.17,424.17 -7.80,433.31 -12.65,440.01 -17.51,446.70 -23.86,454.50 -30.22,462.29 -35.53,470.23 -40.84,478.18 -48.83,488.73 -56.82,499.29 -64.42,508.67 -72.01,518.04 -80.90,527.70 -89.79,537.35 -96.79,547.40 -103.79,557.45 -113.31,568.34 -122.83,579.22 -130.15,589.16 -137.47,599.09 -144.88,608.35 -152.30,617.60 -159.63,626.42 -166.97,635.23 -173.56,643.14 -180.15,651.06 -189.84,664.07 -199.52,677.07 -206.62,684.93 -213.72,692.79 -220.75,701.52 -227.79,710.24 -235.03,718.90 -242.27,727.57 -258.63,745.94 -274.99,764.31 -288.16,779.71 -301.33,795.12 -313.24,808.68 -325.15,822.24 -334.98,834.85 -344.81,847.45 -356.08,860.62 -367.34,873.78 -379.76,888.39 -392.17,903.00 -401.64,914.10 -411.10,925.19 -417.89,933.36 -424.68,941.54 -433.18,951.34 -441.69,961.14 -448.05,968.73 -454.40,976.33 -464.20,986.66 -473.99,997.00 -483.59,1008.21 -493.19,1019.42 -501.56,1028.48 -509.92,1037.54 -516.11,1045.39 -522.30,1053.24 -532.85,1063.84 -543.40,1074.44 -552.75,1083.10 -562.10,1091.76 -569.41,1099.47 -576.72,1107.18 -581.84,1112.77 -586.95,1118.35 -594.23,1124.92 -601.50,1131.48 -607.21,1137.03 -612.93,1142.59 -616.47,1146.63 -620.01,1150.68 -622.50,1154.35 -624.99,1158.03 -628.55,1161.67 -632.11,1165.30 -638.62,1172.50 -645.13,1179.70 -647.73,1183.59 -650.33,1187.47 -651.53,1188.52 -652.72,1189.56 -654.19,1190.17 -655.66,1190.77 -657.24,1190.88 -658.83,1190.98 -660.36,1190.57 -661.90,1190.17 -663.22,1189.29 -664.55,1188.42 -665.52,1187.17 -666.50,1185.91 -667.03,1184.41 -667.55,1182.92 -667.57,1181.33 -667.59,1179.74 -667.10,1178.23 -666.61,1176.72 -665.67,1175.44 -664.72,1174.17 -663.42,1173.26 -662.11,1172.35 -660.59,1171.91 -659.06,1171.47 -657.48,1171.53 -655.89,1171.60 -654.41,1172.17 -652.93,1172.74 -651.70,1173.76 -650.48,1174.77 -649.65,1176.12 -648.81,1177.47 -648.45,1179.02 -648.09,1180.56 -648.24,1182.14 -648.40,1183.72 -649.05,1185.17 -649.70,1186.62 -650.78,1187.79 -651.85,1188.95 -653.25,1189.71 -654.64,1190.47 -656.21,1190.75 -657.77,1191.03 -659.34,1190.79 -660.91,1190.55 -662.32,1189.82 -663.73,1189.09 -664.84,1187.96 -665.94,1186.82 -666.63,1185.38 -667.31,1183.95 -667.50,1182.37 -667.69,1180.80 -667.37,1179.24 -667.05,1177.69 -666.24,1176.32 -665.44,1174.95 -665.44,1174.95 -665.44,1174.95 -664.29,1173.83 -663.14,1172.72 -660.07,1169.49 -657.00,1166.26 -653.33,1163.32 -649.66,1160.37 -643.00,1154.51 -636.33,1148.64 -632.75,1144.95 -629.17,1141.25 -624.98,1137.80 -620.79,1134.35 -614.89,1128.81 -608.99,1123.27 -602.04,1116.87 -595.10,1110.46 -589.72,1105.21 -584.34,1099.95 -576.79,1092.00 -569.24,1084.05 -560.04,1075.53 -550.84,1067.01 -540.69,1056.87 -530.54,1046.73 -524.09,1038.57 -517.65,1030.42 -509.41,1021.50 -501.17,1012.58 -491.39,1001.18 -481.61,989.77 -472.04,979.68 -462.46,969.58 -456.04,961.92 -449.62,954.25 -441.19,944.54 -432.76,934.82 -425.93,926.60 -419.10,918.37 -409.64,907.28 -400.18,896.20 -387.75,881.57 -375.32,866.95 -364.21,853.97 -353.09,840.99 -343.07,828.15 -333.04,815.31 -321.18,801.80 -309.32,788.29 -296.08,772.81 -282.84,757.32 -266.59,739.08 -250.33,720.83 -243.15,712.23 -235.97,703.63 -228.74,694.69 -221.51,685.74 -214.73,678.27 -207.95,670.79 -198.09,657.56 -188.23,644.33 -181.64,636.42 -175.06,628.50 -167.78,619.76 -160.51,611.02 -153.22,601.93 -145.94,592.84 -138.35,582.56 -130.76,572.28 -121.60,561.84 -112.44,551.40 -105.01,540.81 -97.58,530.21 -88.91,520.79 -80.24,511.38 -72.77,502.13 -65.29,492.88 -57.50,482.57 -49.71,472.25 -44.13,463.89 -38.54,455.53 -32.38,447.91 -26.22,440.30 -21.30,433.70 -16.38,427.09 -9.85,418.06 -3.32,409.03 2.26,400.84 7.84,392.65 12.93,384.65 18.02,376.65 25.02,366.14 32.01,355.63 38.61,345.74 45.20,335.86 52.69,323.87 60.18,311.88 64.67,305.35 69.17,298.82 74.75,289.70 80.33,280.58 85.24,272.31 90.16,264.04 95.44,254.01 100.72,243.98 104.84,237.39 108.96,230.80 113.75,221.27 118.54,211.74 123.19,202.62 127.83,193.50 132.35,183.31 136.87,173.12 142.66,158.89 148.46,144.67 152.34,134.10 156.23,123.53 159.03,114.69 161.83,105.85 165.13,96.91 168.42,87.97 173.04,75.23 177.65,62.48 182.10,49.12 186.56,35.76 189.53,22.81 192.50,9.86 195.07,4.05 197.63,-1.75 201.37,-12.34 205.10,-22.93 208.09,-33.60 211.08,-44.27 213.58,-51.14 216.07,-58.01 220.05,-55.99 224.03,-53.97 219.23,-53.94 214.43,-53.91 206.32,-53.28 198.21,-52.64 191.90,-51.87 185.60,-51.09 178.08,-50.28 170.57,-49.48 160.55,-47.15 150.52,-44.82 141.78,-42.67 133.03,-40.53 121.95,-37.07 110.86,-33.61 96.20,-28.79 81.55,-23.98 68.25,-19.26 54.94,-14.54 38.49,-8.50 22.03,-2.47 12.36,1.90 2.69,6.28 1.90,6.51 1.11,6.74 0.28,6.78 -0.53,6.81 -1.34,6.65 -2.15,6.49 -2.89,6.14 -3.64,5.78 -4.28,5.26 -4.92,4.74 -5.42,4.09 -5.91,3.43 -6.24,2.67 -6.56,1.91 -6.70,1.10 -6.83,0.28 -6.76,-0.53 -6.70,-1.35 -6.44,-2.13 -6.18,-2.91 -5.74,-3.61 -5.30,-4.31 -4.71,-4.88 -4.12,-5.46 -3.40,-5.87 -2.69,-6.28 -2.69,-6.28 L -2.69,-6.28 Z"></path></g><g transform="translate(131.212158203125 1079.0911865234375) rotate(0 -60.6060791015625 128.48470052083576)" stroke="none"><path fill="#0c8599" d="M 4.80,6.18 Q 4.80,6.18 -1.58,10.90 -7.98,15.62 -13.42,19.86 -18.85,24.10 -30.31,33.20 -41.77,42.30 -52.39,50.37 -63.01,58.44 -72.48,65.32 -81.95,72.20 -89.30,78.41 -96.64,84.63 -101.69,89.55 -106.75,94.47 -109.73,98.72 -112.71,102.96 -110.76,112.16 -108.80,121.35 -106.33,130.42 -103.86,139.49 -99.49,151.60 -95.13,163.71 -87.83,179.94 -80.54,196.17 -74.69,208.72 -68.84,221.27 -65.62,229.61 -62.39,237.94 -59.44,242.21 -56.49,246.49 -55.00,248.37 -53.52,250.25 -53.10,251.37 -52.68,252.49 -52.64,253.68 -52.60,254.88 -52.95,256.02 -53.29,257.16 -53.98,258.14 -54.67,259.11 -55.64,259.81 -56.60,260.51 -57.74,260.87 -58.88,261.23 -60.07,261.20 -61.27,261.18 -62.39,260.77 -63.51,260.37 -64.45,259.62 -65.38,258.88 -66.03,257.88 -66.68,256.88 -66.98,255.72 -67.27,254.57 -67.18,253.38 -67.09,252.18 -66.63,251.09 -66.16,249.99 -65.37,249.09 -64.58,248.20 -63.54,247.61 -62.51,247.01 -61.33,246.78 -60.16,246.55 -58.98,246.70 -57.80,246.86 -56.72,247.38 -55.65,247.91 -54.80,248.75 -53.95,249.58 -53.42,250.65 -52.88,251.72 -52.71,252.90 -52.54,254.08 -52.76,255.25 -52.98,256.43 -53.56,257.47 -54.14,258.51 -55.03,259.31 -55.91,260.12 -57.00,260.59 -58.10,261.07 -59.29,261.18 -60.48,261.28 -61.64,261.00 -62.80,260.72 -63.81,260.08 -64.82,259.44 -65.57,258.52 -66.32,257.59 -66.32,257.59 -66.32,257.59 -67.20,255.36 -68.07,253.13 -70.67,247.72 -73.27,242.32 -76.55,234.43 -79.82,226.54 -85.99,214.05 -92.16,201.56 -100.02,185.09 -107.88,168.63 -112.93,156.30 -117.99,143.98 -121.29,134.90 -124.58,125.82 -126.59,117.83 -128.60,109.84 -127.31,102.49 -126.02,95.15 -120.66,90.16 -115.29,85.18 -109.84,80.44 -104.38,75.70 -96.85,69.02 -89.33,62.35 -80.18,55.29 -71.04,48.24 -60.84,39.92 -50.64,31.60 -39.34,21.83 -28.05,12.06 -22.57,7.97 -17.10,3.89 -10.95,-1.14 -4.80,-6.18 -3.99,-6.66 -3.18,-7.15 -2.28,-7.42 -1.38,-7.70 -0.44,-7.76 0.50,-7.81 1.42,-7.64 2.35,-7.46 3.21,-7.07 4.07,-6.68 4.81,-6.10 5.55,-5.51 6.13,-4.77 6.71,-4.02 7.10,-3.16 7.48,-2.30 7.65,-1.37 7.81,-0.44 7.75,0.49 7.69,1.43 7.41,2.33 7.12,3.23 6.63,4.04 6.14,4.85 5.47,5.51 4.80,6.18 4.80,6.18 L 4.80,6.18 Z"></path></g><g transform="translate(155.45461018880223 773.636474609375) rotate(0 -4.848531087239735 232.72735595703125)" stroke="none"><path fill="#0c8599" d="M 8.72,5.81 Q 8.72,5.81 5.97,10.01 3.21,14.21 0.38,20.64 -2.44,27.08 -4.90,30.70 -7.36,34.31 -9.89,39.45 -12.43,44.58 -15.45,49.91 -18.47,55.24 -20.42,59.29 -22.37,63.34 -24.96,67.88 -27.54,72.41 -29.35,76.66 -31.16,80.91 -31.41,88.46 -31.67,96.01 -31.26,101.20 -30.86,106.38 -30.73,112.73 -30.61,119.08 -29.53,124.95 -28.46,130.81 -28.16,139.29 -27.86,147.77 -26.96,153.50 -26.06,159.22 -24.99,165.19 -23.92,171.16 -23.23,176.18 -22.55,181.20 -21.59,185.55 -20.63,189.90 -20.39,197.46 -20.14,205.01 -19.30,210.29 -18.46,215.57 -17.90,220.40 -17.34,225.24 -17.05,230.17 -16.77,235.11 -15.41,242.75 -14.05,250.40 -13.82,255.09 -13.59,259.78 -11.87,268.25 -10.16,276.71 -9.31,283.93 -8.46,291.15 -7.47,297.50 -6.47,303.86 -5.39,310.05 -4.30,316.23 -3.04,320.66 -1.79,325.08 -0.62,331.57 0.54,338.05 1.69,344.17 2.83,350.29 4.06,355.54 5.30,360.80 7.92,367.56 10.55,374.33 12.38,379.16 14.21,384.00 15.84,388.30 17.48,392.59 20.31,400.24 23.15,407.89 24.47,413.39 25.79,418.90 29.12,425.19 32.46,431.49 35.21,437.92 37.96,444.35 41.07,451.62 44.19,458.89 44.67,460.78 45.14,462.66 44.99,464.60 44.84,466.54 44.08,468.33 43.32,470.12 42.03,471.57 40.73,473.03 39.04,473.99 37.35,474.95 35.44,475.33 33.54,475.70 31.61,475.44 29.68,475.19 27.93,474.33 26.19,473.47 24.81,472.10 23.43,470.73 22.56,468.99 21.69,467.25 21.42,465.33 21.15,463.40 21.51,461.49 21.87,459.58 22.82,457.88 23.77,456.18 25.21,454.88 26.66,453.58 28.44,452.80 30.22,452.03 32.16,451.86 34.10,451.70 35.99,452.16 37.88,452.62 39.52,453.67 41.16,454.71 42.39,456.22 43.61,457.73 44.29,459.55 44.96,461.38 45.02,463.32 45.08,465.27 44.52,467.13 43.95,468.99 42.83,470.57 41.70,472.15 40.12,473.29 38.54,474.43 36.69,475.01 34.83,475.59 32.89,475.54 30.94,475.50 29.11,474.83 27.29,474.17 25.77,472.95 24.25,471.74 23.19,470.11 22.14,468.47 22.14,468.47 22.14,468.47 20.36,464.13 18.57,459.78 16.24,453.45 13.90,447.12 11.52,440.55 9.15,433.99 6.82,429.13 4.49,424.27 3.34,419.62 2.19,414.97 -0.17,407.35 -2.54,399.73 -3.93,395.56 -5.31,391.40 -8.36,382.44 -11.41,373.47 -12.57,369.28 -13.73,365.08 -14.92,359.56 -16.10,354.04 -17.38,347.92 -18.66,341.81 -19.91,335.91 -21.16,330.01 -22.32,324.97 -23.48,319.93 -24.78,313.69 -26.09,307.45 -27.45,300.97 -28.81,294.48 -30.22,287.89 -31.63,281.29 -32.68,276.25 -33.73,271.21 -34.51,265.85 -35.30,260.48 -35.45,253.02 -35.61,245.55 -36.31,240.68 -37.02,235.81 -37.21,227.11 -37.41,218.41 -38.28,212.24 -39.16,206.07 -39.68,199.81 -40.19,193.56 -41.03,188.36 -41.87,183.16 -42.13,178.84 -42.38,174.53 -43.53,168.36 -44.68,162.19 -45.72,155.77 -46.75,149.34 -47.74,142.34 -48.73,135.33 -50.67,127.73 -52.61,120.14 -53.03,114.48 -53.46,108.83 -54.33,102.17 -55.21,95.51 -55.26,89.39 -55.30,83.28 -54.64,78.17 -53.98,73.06 -50.97,66.95 -47.97,60.84 -45.88,57.13 -43.79,53.41 -39.49,45.13 -35.19,36.86 -32.52,32.93 -29.84,29.00 -27.63,24.89 -25.42,20.77 -22.21,16.08 -19.01,11.39 -16.69,6.95 -14.37,2.51 -11.54,-1.65 -8.72,-5.81 -7.90,-6.77 -7.08,-7.73 -6.05,-8.47 -5.02,-9.20 -3.84,-9.67 -2.67,-10.14 -1.42,-10.31 -0.16,-10.48 1.08,-10.35 2.34,-10.22 3.53,-9.79 4.72,-9.36 5.77,-8.66 6.82,-7.96 7.68,-7.02 8.53,-6.09 9.13,-4.98 9.74,-3.87 10.06,-2.65 10.38,-1.43 10.40,-0.16 10.42,1.09 10.14,2.32 9.86,3.56 9.29,4.68 8.72,5.81 8.72,5.81 L 8.72,5.81 Z"></path></g><g transform="translate(153.03029378255223 759.0913899739608) rotate(0 63.030344645182254 253.33323160807413)" stroke="none"><path fill="#0c8599" d="M 8.10,-2.02 Q 8.10,-2.02 9.64,3.51 11.17,9.05 12.76,19.38 14.36,29.72 15.24,37.06 16.12,44.40 17.73,51.14 19.34,57.88 21.22,70.29 23.09,82.70 24.56,90.57 26.02,98.45 27.62,104.49 29.22,110.53 30.20,115.54 31.19,120.54 33.11,129.25 35.02,137.95 36.70,144.88 38.38,151.81 40.45,157.83 42.53,163.85 44.11,169.12 45.68,174.39 46.42,178.68 47.17,182.97 49.08,188.86 51.00,194.75 51.66,199.33 52.32,203.91 54.18,211.25 56.04,218.58 57.84,228.10 59.63,237.63 62.28,246.03 64.92,254.44 66.93,264.21 68.95,273.98 70.25,279.49 71.55,284.99 72.75,290.99 73.96,296.98 75.16,302.17 76.36,307.36 77.98,313.54 79.60,319.72 81.13,325.35 82.65,330.98 85.44,338.00 88.23,345.01 90.91,351.15 93.59,357.28 95.05,361.41 96.50,365.53 98.28,371.60 100.06,377.68 101.34,382.56 102.63,387.44 104.94,395.06 107.25,402.68 109.16,409.07 111.07,415.46 112.51,420.65 113.96,425.85 116.29,431.76 118.62,437.67 120.38,442.26 122.15,446.85 123.48,451.39 124.80,455.94 127.50,462.85 130.20,469.77 132.09,473.98 133.99,478.20 136.24,484.79 138.49,491.39 139.10,496.74 139.70,502.09 139.75,503.92 139.79,505.75 139.45,507.95 139.11,510.15 138.09,512.12 137.07,514.10 135.47,515.64 133.87,517.19 131.87,518.14 129.86,519.10 127.65,519.36 125.44,519.62 123.27,519.17 121.09,518.71 119.18,517.58 117.26,516.46 115.80,514.78 114.35,513.10 113.50,511.04 112.66,508.99 112.52,506.77 112.37,504.55 112.95,502.40 113.52,500.25 114.75,498.40 115.98,496.55 117.73,495.18 119.49,493.82 121.59,493.09 123.69,492.36 125.91,492.34 128.13,492.31 130.25,493.00 132.36,493.69 134.14,495.02 135.93,496.35 137.19,498.17 138.46,500.00 139.08,502.14 139.69,504.27 139.59,506.49 139.50,508.71 138.69,510.79 137.89,512.86 136.47,514.57 135.05,516.28 133.15,517.44 131.26,518.61 129.10,519.11 126.93,519.61 124.72,519.39 122.50,519.17 120.48,518.26 118.45,517.34 116.82,515.83 115.19,514.32 114.13,512.37 113.07,510.41 112.69,508.22 112.31,506.03 112.31,506.03 112.31,506.04 112.57,502.03 112.83,498.03 110.15,490.64 107.46,483.25 105.91,478.12 104.37,472.99 101.03,465.04 97.69,457.08 95.61,450.63 93.52,444.19 91.02,437.01 88.52,429.84 87.37,424.96 86.22,420.09 84.75,414.71 83.29,409.33 81.18,402.35 79.08,395.37 77.93,389.82 76.78,384.28 74.80,376.60 72.82,368.93 71.63,363.79 70.45,358.65 68.12,351.65 65.78,344.65 64.47,340.50 63.17,336.34 61.66,330.94 60.16,325.55 57.93,318.90 55.71,312.25 54.42,306.92 53.14,301.60 51.77,295.98 50.40,290.37 48.92,284.96 47.45,279.54 45.13,270.12 42.80,260.70 41.60,256.47 40.40,252.24 38.94,247.74 37.48,243.25 35.19,233.77 32.89,224.28 31.79,219.89 30.69,215.51 29.49,208.16 28.28,200.80 26.36,193.26 24.43,185.72 23.46,180.05 22.48,174.38 21.37,168.34 20.27,162.30 19.41,155.54 18.56,148.78 17.77,140.19 16.98,131.61 16.26,127.05 15.55,122.50 15.37,118.08 15.18,113.67 14.02,107.39 12.86,101.11 11.11,93.12 9.36,85.12 6.96,73.30 4.56,61.49 2.66,53.87 0.77,46.25 -0.03,39.49 -0.84,32.72 -3.22,22.98 -5.60,13.24 -6.85,7.63 -8.10,2.02 -8.23,1.02 -8.35,0.02 -8.24,-0.97 -8.12,-1.97 -7.76,-2.91 -7.41,-3.85 -6.84,-4.69 -6.27,-5.52 -5.52,-6.19 -4.77,-6.86 -3.88,-7.33 -2.98,-7.80 -2.01,-8.04 -1.03,-8.29 -0.02,-8.29 0.98,-8.30 1.95,-8.06 2.93,-7.82 3.83,-7.35 4.72,-6.89 5.48,-6.22 6.23,-5.56 6.81,-4.73 7.38,-3.90 7.74,-2.96 8.10,-2.02 8.10,-2.02 L 8.10,-2.02 Z"></path></g><g transform="translate(174.84853108723973 1212.4245198567733) rotate(0 59.3939208984375 42.42411295573038)" stroke="none"><path fill="#0c8599" d="M 10.27,-2.56 Q 10.27,-2.56 11.60,3.02 12.93,8.61 14.25,12.87 15.57,17.13 16.39,21.84 17.21,26.54 18.80,33.11 20.39,39.68 21.83,44.95 23.27,50.21 24.68,55.13 26.09,60.04 26.53,65.63 26.98,71.22 32.29,71.13 37.61,71.04 43.58,70.44 49.55,69.84 54.76,68.92 59.96,67.99 66.08,66.58 72.20,65.18 76.74,64.22 81.27,63.27 88.89,61.64 96.50,60.02 103.52,58.68 110.53,57.35 112.06,56.89 113.59,56.43 115.58,56.28 117.57,56.14 119.51,56.63 121.44,57.13 123.12,58.21 124.79,59.30 126.03,60.86 127.27,62.43 127.95,64.31 128.62,66.18 128.66,68.18 128.71,70.18 128.11,72.08 127.51,73.98 126.33,75.60 125.16,77.21 123.53,78.37 121.90,79.52 119.99,80.09 118.07,80.67 116.08,80.60 114.08,80.53 112.21,79.83 110.34,79.13 108.80,77.87 107.25,76.60 106.19,74.92 105.12,73.23 104.65,71.29 104.19,69.34 104.36,67.36 104.54,65.37 105.34,63.54 106.14,61.71 107.48,60.23 108.83,58.76 110.57,57.79 112.32,56.82 114.28,56.45 116.24,56.09 118.22,56.37 120.19,56.66 121.98,57.56 123.76,58.46 125.16,59.88 126.56,61.30 127.44,63.09 128.31,64.89 128.57,66.87 128.82,68.85 128.43,70.81 128.04,72.76 127.05,74.49 126.05,76.23 124.56,77.55 123.06,78.87 121.22,79.65 119.38,80.42 119.39,80.42 119.39,80.42 117.82,80.71 116.25,81.00 108.63,82.30 101.01,83.60 96.20,84.67 91.38,85.74 85.19,86.75 79.00,87.77 71.75,89.09 64.50,90.42 58.80,91.70 53.09,92.99 46.51,94.31 39.93,95.63 29.20,96.37 18.47,97.11 13.96,94.53 9.44,91.95 6.05,87.15 2.67,82.34 2.29,77.12 1.91,71.89 1.90,66.32 1.89,60.76 0.81,55.41 -0.25,50.06 -1.30,43.73 -2.34,37.40 -3.59,30.20 -4.83,23.00 -6.10,18.34 -7.36,13.68 -8.82,8.12 -10.27,2.56 -10.43,1.30 -10.59,0.03 -10.44,-1.23 -10.29,-2.50 -9.84,-3.69 -9.39,-4.89 -8.67,-5.94 -7.95,-6.99 -7.00,-7.84 -6.04,-8.69 -4.91,-9.29 -3.78,-9.89 -2.55,-10.20 -1.31,-10.51 -0.03,-10.51 1.24,-10.52 2.48,-10.22 3.72,-9.91 4.85,-9.32 5.99,-8.73 6.94,-7.89 7.90,-7.05 8.63,-6.00 9.36,-4.95 9.82,-3.76 10.27,-2.56 10.27,-2.56 L 10.27,-2.56 Z"></path></g><g transform="translate(691.212158203125 160.30314127604652) rotate(0 41.212158203124886 149.09088134765625)" stroke="none"><path fill="#0c8599" d="M 6.82,-1.98 Q 6.82,-1.98 11.46,14.80 16.09,31.60 19.45,48.76 22.80,65.93 31.05,94.49 39.30,123.05 45.61,148.66 51.93,174.27 58.72,197.55 65.51,220.82 70.45,235.54 75.39,250.27 78.24,261.66 81.10,273.05 83.23,279.76 85.37,286.47 86.59,289.26 87.82,292.05 87.94,293.15 88.06,294.25 87.82,295.33 87.58,296.41 87.01,297.36 86.44,298.31 85.60,299.03 84.75,299.74 83.73,300.15 82.70,300.56 81.59,300.62 80.49,300.68 79.42,300.39 78.35,300.09 77.44,299.47 76.52,298.85 75.85,297.97 75.18,297.09 74.83,296.04 74.47,294.99 74.47,293.88 74.47,292.77 74.83,291.72 75.18,290.67 75.85,289.79 76.52,288.91 77.44,288.29 78.35,287.67 79.42,287.37 80.49,287.08 81.59,287.14 82.70,287.20 83.73,287.61 84.75,288.02 85.60,288.73 86.44,289.45 87.01,290.40 87.58,291.35 87.82,292.43 88.06,293.51 87.94,294.61 87.82,295.71 87.35,296.72 86.89,297.72 86.13,298.52 85.37,299.33 84.39,299.85 83.41,300.36 82.32,300.54 81.22,300.72 80.13,300.54 79.04,300.36 78.06,299.85 77.08,299.33 76.32,298.52 75.56,297.72 75.10,296.71 74.63,295.71 74.63,295.71 74.63,295.71 74.24,292.69 73.85,289.67 72.19,282.70 70.53,275.73 67.72,264.77 64.91,253.81 59.81,238.91 54.71,224.01 47.72,200.54 40.73,177.08 34.29,151.74 27.85,126.41 19.21,97.43 10.58,68.44 6.99,51.87 3.41,35.30 -1.70,18.64 -6.82,1.98 -6.96,1.14 -7.09,0.29 -7.03,-0.55 -6.96,-1.40 -6.69,-2.22 -6.42,-3.03 -5.96,-3.75 -5.51,-4.48 -4.89,-5.07 -4.27,-5.67 -3.53,-6.10 -2.79,-6.53 -1.97,-6.77 -1.15,-7.01 -0.29,-7.04 0.55,-7.08 1.39,-6.91 2.23,-6.74 3.01,-6.37 3.78,-6.01 4.45,-5.47 5.11,-4.93 5.63,-4.24 6.14,-3.56 6.48,-2.77 6.82,-1.98 6.82,-1.98 L 6.82,-1.98 Z"></path></g><g transform="translate(620.9092203776042 385.75764973958576) rotate(0 9.69696044921875 121.212158203125)" stroke="none"><path fill="#0c8599" d="M 7.12,0 Q 7.12,0 6.86,13.24 6.61,26.48 6.43,42.56 6.24,58.65 6.11,77.33 5.97,96.01 6.57,112.19 7.16,128.37 9.45,145.50 11.75,162.62 14.10,179.05 16.45,195.48 18.13,206.64 19.81,217.80 21.49,224.44 23.17,231.08 24.19,233.90 25.22,236.72 25.27,237.83 25.31,238.94 25.00,240.01 24.70,241.07 24.06,241.99 23.43,242.90 22.54,243.56 21.64,244.23 20.59,244.57 19.53,244.91 18.42,244.90 17.31,244.89 16.26,244.52 15.21,244.16 14.33,243.48 13.45,242.79 12.84,241.87 12.22,240.94 11.94,239.87 11.65,238.79 11.73,237.68 11.80,236.57 12.22,235.54 12.64,234.52 13.37,233.68 14.10,232.84 15.06,232.27 16.02,231.71 17.11,231.49 18.19,231.26 19.30,231.39 20.40,231.52 21.41,232.00 22.41,232.48 23.21,233.25 24.01,234.02 24.52,235.01 25.03,236.00 25.19,237.10 25.36,238.20 25.17,239.29 24.98,240.39 24.45,241.36 23.92,242.34 23.10,243.10 22.28,243.85 21.27,244.31 20.26,244.76 19.15,244.87 18.04,244.98 16.96,244.73 15.88,244.48 14.93,243.89 13.99,243.31 13.28,242.45 12.57,241.60 12.17,240.56 11.77,239.52 11.77,239.53 11.77,239.53 11.58,236.53 11.39,233.54 10.21,226.50 9.03,219.46 7.27,208.27 5.51,197.09 3.04,180.62 0.58,164.15 -1.89,146.51 -4.37,128.87 -5.17,112.44 -5.97,96.01 -6.11,77.33 -6.24,58.65 -6.43,42.56 -6.61,26.48 -6.86,13.24 -7.12,0 -7.01,-0.85 -6.91,-1.70 -6.61,-2.50 -6.30,-3.31 -5.81,-4.01 -5.33,-4.72 -4.68,-5.29 -4.04,-5.86 -3.28,-6.26 -2.52,-6.65 -1.69,-6.86 -0.85,-7.07 0.00,-7.07 0.85,-7.07 1.69,-6.86 2.52,-6.65 3.28,-6.26 4.04,-5.86 4.68,-5.29 5.33,-4.72 5.81,-4.01 6.30,-3.30 6.61,-2.50 6.91,-1.70 7.01,-0.85 7.12,0.00 7.12,0.00 L 7.12,0 Z"></path></g><g transform="translate(506.9698079427085 565.1519775390625) rotate(0 -6.060689290364621 106.66646321614826)" stroke="none"><path fill="#0c8599" d="M 7.09,1.66 Q 7.09,1.66 4.03,13.45 0.98,25.23 -1.04,37.63 -3.07,50.02 -3.99,65.56 -4.90,81.11 -5.35,96.82 -5.79,112.52 -6.01,126.17 -6.24,139.83 -6.35,153.29 -6.47,166.76 -6.54,178.75 -6.61,190.74 -5.52,196.17 -4.43,201.59 -3.76,206.15 -3.09,210.72 -3.17,211.82 -3.24,212.92 -3.67,213.93 -4.09,214.95 -4.82,215.78 -5.55,216.61 -6.50,217.16 -7.46,217.71 -8.54,217.93 -9.62,218.15 -10.71,218.02 -11.81,217.88 -12.80,217.40 -13.79,216.92 -14.58,216.15 -15.37,215.38 -15.87,214.39 -16.37,213.41 -16.53,212.32 -16.69,211.23 -16.49,210.14 -16.30,209.06 -15.77,208.09 -15.23,207.13 -14.42,206.38 -13.61,205.64 -12.60,205.19 -11.59,204.74 -10.49,204.64 -9.39,204.54 -8.32,204.80 -7.25,205.05 -6.31,205.64 -5.38,206.22 -4.68,207.07 -3.98,207.92 -3.59,208.96 -3.19,209.99 -3.15,211.09 -3.11,212.19 -3.42,213.25 -3.74,214.31 -4.37,215.21 -5.00,216.11 -5.89,216.76 -6.78,217.42 -7.83,217.75 -8.88,218.09 -9.99,218.07 -11.09,218.05 -12.13,217.68 -13.17,217.31 -14.03,216.63 -14.90,215.95 -15.51,215.02 -16.11,214.10 -16.39,213.03 -16.66,211.97 -16.66,211.97 -16.66,211.97 -16.82,207.52 -16.98,203.07 -17.27,196.90 -17.55,190.73 -17.56,178.72 -17.58,166.71 -17.58,153.21 -17.57,139.71 -17.50,125.99 -17.44,112.27 -17.20,96.39 -16.97,80.50 -16.28,64.33 -15.60,48.17 -13.86,35.16 -12.13,22.15 -9.61,10.24 -7.09,-1.66 -6.78,-2.49 -6.48,-3.31 -5.99,-4.04 -5.50,-4.77 -4.85,-5.36 -4.20,-5.95 -3.42,-6.36 -2.65,-6.78 -1.80,-7.00 -0.95,-7.22 -0.07,-7.23 0.80,-7.23 1.65,-7.03 2.51,-6.83 3.29,-6.43 4.07,-6.03 4.73,-5.46 5.40,-4.88 5.90,-4.16 6.41,-3.45 6.73,-2.63 7.05,-1.81 7.16,-0.94 7.28,-0.07 7.18,0.79 7.09,1.66 7.09,1.66 L 7.09,1.66 Z"></path></g><g transform="translate(390.6060791015625 727.5758870442733) rotate(0 4.848531087239621 87.27274576823038)" stroke="none"><path fill="#0c8599" d="M 7.54,0 Q 7.54,0 7.23,13.24 6.92,26.48 6.70,41.17 6.47,55.86 7.69,72.30 8.90,88.74 10.07,102.08 11.23,115.42 12.39,128.08 13.55,140.73 14.10,148.99 14.65,157.25 15.34,162.15 16.03,167.04 16.45,169.09 16.86,171.15 16.73,172.32 16.59,173.50 16.08,174.57 15.58,175.64 14.76,176.50 13.93,177.35 12.88,177.90 11.83,178.44 10.66,178.62 9.49,178.81 8.32,178.61 7.16,178.40 6.12,177.84 5.07,177.28 4.27,176.41 3.46,175.54 2.97,174.47 2.48,173.39 2.36,172.21 2.24,171.03 2.51,169.87 2.77,168.72 3.39,167.71 4.01,166.70 4.92,165.94 5.83,165.18 6.93,164.75 8.03,164.32 9.22,164.27 10.40,164.21 11.54,164.54 12.68,164.86 13.65,165.54 14.63,166.21 15.34,167.16 16.05,168.11 16.42,169.23 16.79,170.36 16.78,171.54 16.77,172.73 16.38,173.85 15.99,174.97 15.27,175.90 14.54,176.84 13.56,177.50 12.57,178.15 11.43,178.46 10.28,178.77 9.10,178.70 7.92,178.62 6.82,178.17 5.72,177.73 4.83,176.95 3.93,176.18 3.33,175.16 2.73,174.14 2.48,172.98 2.24,171.82 2.24,171.82 2.24,171.82 2.46,169.74 2.69,167.66 2.93,162.83 3.17,157.99 2.67,149.92 2.16,141.85 0.82,129.20 -0.50,116.56 -1.91,103.16 -3.33,89.76 -4.90,72.81 -6.47,55.86 -6.70,41.17 -6.92,26.48 -7.23,13.24 -7.54,0 -7.43,-0.90 -7.32,-1.80 -7.00,-2.65 -6.67,-3.50 -6.16,-4.25 -5.64,-5.00 -4.96,-5.60 -4.28,-6.20 -3.47,-6.63 -2.67,-7.05 -1.79,-7.27 -0.90,-7.48 0.00,-7.48 0.90,-7.48 1.79,-7.27 2.67,-7.05 3.48,-6.62 4.28,-6.20 4.96,-5.60 5.64,-5.00 6.16,-4.25 6.67,-3.50 7.00,-2.65 7.32,-1.80 7.43,-0.90 7.54,0.00 7.54,0.00 L 7.54,0 Z"></path></g><g transform="translate(320.30303955078125 843.9398193359375) rotate(0 4.848480224609375 50.90901692708576)" stroke="none"><path fill="#0c8599" d="M 9.72,-0.97 Q 9.72,-0.97 10.21,6.01 10.70,13.00 11.06,18.98 11.42,24.95 11.80,32.77 12.18,40.59 13.23,46.51 14.28,52.42 15.02,56.67 15.75,60.91 17.08,67.70 18.40,74.48 19.32,81.01 20.23,87.53 20.58,93.84 20.93,100.14 20.66,101.94 20.38,103.74 19.55,105.36 18.71,106.98 17.40,108.24 16.09,109.51 14.44,110.29 12.80,111.07 10.99,111.29 9.18,111.50 7.40,111.13 5.62,110.76 4.04,109.83 2.47,108.91 1.28,107.53 0.09,106.16 -0.59,104.47 -1.29,102.79 -1.40,100.97 -1.52,99.15 -1.05,97.39 -0.58,95.63 0.42,94.11 1.42,92.60 2.86,91.48 4.30,90.36 6.02,89.76 7.74,89.16 9.56,89.14 11.39,89.13 13.12,89.69 14.85,90.25 16.31,91.34 17.77,92.43 18.81,93.93 19.85,95.43 20.35,97.18 20.86,98.93 20.78,100.75 20.70,102.57 20.04,104.26 19.38,105.96 18.22,107.36 17.05,108.76 15.50,109.72 13.95,110.67 12.17,111.08 10.40,111.49 8.58,111.31 6.77,111.13 5.11,110.39 3.45,109.64 2.12,108.40 0.78,107.16 -0.08,105.56 -0.95,103.96 -1.26,102.16 -1.57,100.37 -1.57,100.37 -1.57,100.37 -1.41,94.50 -1.25,88.64 -1.28,83.42 -1.31,78.21 -1.99,73.47 -2.67,68.73 -2.75,62.02 -2.83,55.31 -3.87,48.83 -4.92,42.35 -6.18,34.14 -7.44,25.92 -7.68,20.39 -7.91,14.86 -8.82,7.92 -9.72,0.97 -9.70,-0.20 -9.67,-1.38 -9.37,-2.52 -9.06,-3.65 -8.49,-4.69 -7.92,-5.72 -7.12,-6.58 -6.32,-7.45 -5.34,-8.10 -4.35,-8.75 -3.24,-9.14 -2.13,-9.54 -0.96,-9.65 0.20,-9.77 1.37,-9.60 2.54,-9.44 3.63,-9.00 4.72,-8.55 5.68,-7.86 6.63,-7.17 7.40,-6.28 8.16,-5.38 8.68,-4.32 9.21,-3.27 9.47,-2.12 9.72,-0.97 9.72,-0.97 L 9.72,-0.97 Z"></path></g><g transform="translate(262.12137858072924 931.2123616536483) rotate(0 0 32.72725423176962)" stroke="none"><path fill="#0c8599" d="M 9.72,0 Q 9.72,0 9.52,6.96 9.33,13.93 9.38,19.68 9.43,25.43 9.53,30.67 9.64,35.90 9.75,40.91 9.86,45.92 9.96,50.84 10.06,55.76 10.19,59.73 10.32,63.70 10.05,65.35 9.78,66.99 8.99,68.47 8.21,69.95 7.00,71.09 5.79,72.24 4.27,72.94 2.76,73.64 1.10,73.82 -0.55,74.01 -2.19,73.65 -3.82,73.29 -5.25,72.43 -6.68,71.56 -7.76,70.29 -8.84,69.02 -9.46,67.47 -10.08,65.92 -10.17,64.25 -10.26,62.58 -9.81,60.97 -9.36,59.36 -8.42,57.98 -7.49,56.60 -6.16,55.59 -4.83,54.58 -3.25,54.05 -1.66,53.51 0.00,53.51 1.67,53.51 3.25,54.05 4.83,54.58 6.16,55.59 7.49,56.60 8.43,57.98 9.36,59.37 9.81,60.98 10.26,62.58 10.17,64.25 10.07,65.92 9.46,67.47 8.84,69.02 7.76,70.29 6.68,71.57 5.24,72.43 3.81,73.29 2.18,73.65 0.55,74.01 -1.10,73.82 -2.76,73.64 -4.27,72.94 -5.79,72.24 -7.00,71.09 -8.21,69.94 -9.00,68.47 -9.78,66.99 -10.05,65.34 -10.32,63.70 -10.32,63.70 -10.32,63.70 -10.19,59.73 -10.06,55.76 -9.96,50.84 -9.86,45.92 -9.75,40.91 -9.64,35.90 -9.53,30.67 -9.43,25.43 -9.38,19.68 -9.33,13.93 -9.52,6.96 -9.72,0 -9.58,-1.16 -9.44,-2.32 -9.03,-3.42 -8.61,-4.52 -7.94,-5.48 -7.28,-6.45 -6.40,-7.22 -5.52,-8.00 -4.48,-8.55 -3.44,-9.09 -2.31,-9.37 -1.17,-9.65 0.00,-9.65 1.17,-9.65 2.31,-9.37 3.45,-9.09 4.48,-8.55 5.52,-8.00 6.40,-7.22 7.28,-6.45 7.94,-5.48 8.61,-4.52 9.03,-3.42 9.44,-2.32 9.58,-1.16 9.72,0.00 9.72,0.00 L 9.72,0 Z"></path></g><g transform="translate(51.212158203125 1159.0911865234375) rotate(0 3.6363728841146212 26.66666666666788)" stroke="none"><path fill="#0c8599" d="M 9.52,-0.79 Q 9.52,-0.79 9.69,7.61 9.86,16.01 10.99,20.44 12.11,24.87 12.83,29.47 13.55,34.07 15.06,41.50 16.57,48.93 16.71,50.56 16.85,52.18 16.46,53.77 16.08,55.36 15.21,56.74 14.33,58.12 13.07,59.15 11.80,60.18 10.27,60.75 8.74,61.32 7.10,61.38 5.47,61.43 3.91,60.96 2.34,60.49 1.01,59.54 -0.31,58.60 -1.27,57.27 -2.23,55.95 -2.72,54.39 -3.21,52.83 -3.17,51.20 -3.13,49.57 -2.58,48.03 -2.02,46.49 -1.01,45.22 0.00,43.94 1.37,43.05 2.74,42.16 4.33,41.76 5.91,41.36 7.54,41.48 9.17,41.61 10.67,42.24 12.18,42.88 13.40,43.97 14.62,45.05 15.43,46.47 16.24,47.89 16.56,49.49 16.87,51.09 16.66,52.71 16.45,54.33 15.73,55.80 15.01,57.27 13.86,58.43 12.71,59.59 11.25,60.32 9.79,61.06 8.18,61.28 6.56,61.51 4.95,61.21 3.35,60.91 1.92,60.12 0.50,59.32 -0.59,58.11 -1.69,56.90 -2.34,55.40 -2.99,53.90 -2.99,53.91 -2.99,53.91 -4.10,48.58 -5.20,43.25 -5.28,35.81 -5.35,28.37 -6.21,22.90 -7.07,17.43 -8.30,9.11 -9.52,0.79 -9.48,-0.35 -9.43,-1.50 -9.12,-2.61 -8.80,-3.72 -8.22,-4.72 -7.65,-5.72 -6.86,-6.55 -6.06,-7.38 -5.09,-8.00 -4.11,-8.62 -3.02,-8.99 -1.93,-9.36 -0.78,-9.45 0.36,-9.55 1.49,-9.36 2.63,-9.18 3.69,-8.73 4.75,-8.29 5.68,-7.60 6.60,-6.91 7.33,-6.01 8.06,-5.12 8.56,-4.08 9.05,-3.04 9.29,-1.92 9.52,-0.79 9.52,-0.79 L 9.52,-0.79 Z"></path></g><g transform="translate(809.9999999999998 111.8182373046875) rotate(0 10.90922037760447 44.84853108724201)" stroke="none"><path fill="#0c8599" d="M 8.34,-1.19 Q 8.34,-1.19 9.31,8.62 10.29,18.43 12.04,25.69 13.79,32.94 15.18,41.34 16.57,49.74 18.49,57.14 20.42,64.55 22.28,69.71 24.14,74.88 26.55,79.65 28.96,84.41 29.23,85.77 29.49,87.12 29.31,88.49 29.13,89.86 28.52,91.10 27.92,92.34 26.94,93.33 25.97,94.31 24.73,94.93 23.50,95.55 22.13,95.74 20.76,95.93 19.40,95.68 18.05,95.42 16.84,94.75 15.63,94.07 14.71,93.05 13.78,92.02 13.23,90.76 12.68,89.49 12.56,88.11 12.44,86.73 12.77,85.39 13.10,84.05 13.84,82.88 14.57,81.71 15.65,80.84 16.72,79.97 18.02,79.49 19.31,79.01 20.69,78.97 22.07,78.92 23.40,79.32 24.72,79.72 25.85,80.52 26.97,81.33 27.78,82.45 28.59,83.56 29.00,84.88 29.42,86.20 29.38,87.58 29.35,88.97 28.88,90.27 28.41,91.56 27.55,92.65 26.69,93.73 25.53,94.48 24.36,95.22 23.02,95.56 21.69,95.90 20.31,95.80 18.93,95.69 17.66,95.15 16.39,94.61 15.35,93.69 14.32,92.77 13.64,91.57 12.95,90.37 12.95,90.37 12.95,90.37 11.48,84.70 10.01,79.03 8.73,73.53 7.45,68.03 5.28,60.16 3.11,52.30 1.41,44.45 -0.27,36.60 -2.49,28.60 -4.71,20.59 -6.53,10.89 -8.34,1.19 -8.36,0.17 -8.38,-0.83 -8.16,-1.83 -7.94,-2.82 -7.48,-3.73 -7.03,-4.64 -6.37,-5.41 -5.71,-6.18 -4.89,-6.78 -4.07,-7.37 -3.13,-7.75 -2.18,-8.13 -1.18,-8.28 -0.17,-8.42 0.83,-8.32 1.84,-8.22 2.80,-7.88 3.75,-7.54 4.60,-6.98 5.45,-6.42 6.14,-5.67 6.83,-4.93 7.32,-4.04 7.81,-3.15 8.07,-2.17 8.34,-1.19 8.34,-1.19 L 8.34,-1.19 Z"></path></g><g transform="translate(104.54549153645848 1231.818644205734) rotate(0 -41.21210734049487 41.21195475260174)" stroke="none"><path fill="#0c8599" d="M 9.04,4.11 Q 9.04,4.11 5.03,11.54 1.01,18.96 -2.86,25.37 -6.74,31.77 -9.57,36.61 -12.41,41.44 -14.36,46.38 -16.32,51.32 -19.84,56.73 -23.37,62.14 -26.73,65.75 -30.09,69.36 -37.39,74.55 -44.68,79.73 -48.87,81.62 -53.05,83.52 -57.53,85.20 -62.00,86.88 -69.52,90.19 -77.04,93.49 -78.98,93.82 -80.93,94.16 -82.89,93.85 -84.84,93.54 -86.59,92.63 -88.34,91.71 -89.71,90.29 -91.08,88.86 -91.93,87.07 -92.77,85.28 -92.99,83.32 -93.22,81.36 -92.81,79.42 -92.40,77.49 -91.39,75.79 -90.38,74.09 -88.88,72.80 -87.39,71.51 -85.55,70.76 -83.72,70.02 -81.75,69.90 -79.78,69.78 -77.87,70.29 -75.96,70.81 -74.32,71.91 -72.67,73.01 -71.46,74.57 -70.26,76.14 -69.61,78.01 -68.97,79.88 -68.96,81.86 -68.94,83.83 -69.56,85.71 -70.18,87.59 -71.37,89.17 -72.55,90.75 -74.18,91.87 -75.81,92.99 -77.71,93.53 -79.61,94.07 -81.59,93.98 -83.56,93.89 -85.41,93.17 -87.25,92.45 -88.76,91.18 -90.28,89.91 -91.31,88.22 -92.34,86.53 -92.78,84.60 -93.21,82.68 -93.01,80.71 -92.81,78.74 -91.99,76.94 -91.17,75.14 -89.82,73.70 -88.47,72.26 -86.73,71.32 -84.99,70.38 -84.99,70.38 -85.00,70.38 -78.92,67.87 -72.84,65.36 -67.52,63.74 -62.20,62.12 -56.03,59.26 -49.86,56.41 -45.95,52.98 -42.04,49.54 -38.31,46.86 -34.57,44.18 -31.01,38.11 -27.46,32.04 -24.47,27.55 -21.48,23.07 -18.21,17.38 -14.95,11.69 -12.00,3.79 -9.04,-4.11 -8.42,-5.13 -7.80,-6.15 -6.95,-7.00 -6.10,-7.84 -5.07,-8.46 -4.04,-9.07 -2.90,-9.43 -1.75,-9.78 -0.55,-9.85 0.63,-9.91 1.81,-9.69 2.99,-9.47 4.08,-8.98 5.17,-8.48 6.11,-7.74 7.05,-7.00 7.79,-6.05 8.52,-5.10 9.01,-4.01 9.50,-2.92 9.71,-1.74 9.92,-0.56 9.84,0.63 9.76,1.82 9.40,2.97 9.04,4.11 9.04,4.11 L 9.04,4.11 Z"></path></g><g transform="translate(608.787841796875 330.00020345052326) rotate(0 12.12127685546875 60.60597737630087)" stroke="none"><path fill="#0c8599" d="M 9.17,-1.66 Q 9.17,-1.66 10.23,6.05 11.29,13.78 12.22,22.07 13.16,30.37 14.48,36.44 15.80,42.52 16.58,48.34 17.37,54.16 18.38,59.68 19.38,65.20 20.58,70.22 21.78,75.24 23.07,80.14 24.35,85.03 25.08,90.51 25.81,96.00 28.44,103.38 31.07,110.77 31.99,112.65 32.91,114.52 33.26,116.19 33.62,117.85 33.42,119.54 33.22,121.23 32.50,122.76 31.77,124.30 30.59,125.53 29.42,126.75 27.91,127.54 26.40,128.32 24.72,128.58 23.04,128.85 21.36,128.56 19.69,128.27 18.19,127.46 16.70,126.66 15.54,125.41 14.38,124.17 13.67,122.62 12.97,121.07 12.80,119.38 12.63,117.69 13.01,116.03 13.39,114.37 14.28,112.92 15.16,111.47 16.47,110.38 17.77,109.29 19.36,108.68 20.94,108.06 22.64,107.98 24.34,107.90 25.97,108.37 27.61,108.84 29.01,109.80 30.41,110.77 31.42,112.13 32.44,113.49 32.97,115.10 33.50,116.72 33.49,118.42 33.48,120.12 32.92,121.73 32.37,123.33 31.33,124.68 30.29,126.02 28.87,126.97 27.46,127.91 25.82,128.35 24.17,128.79 22.48,128.69 20.78,128.58 19.21,127.94 17.63,127.30 16.34,126.19 15.06,125.08 14.19,123.62 13.33,122.15 13.33,122.15 13.33,122.15 12.74,120.15 12.14,118.15 10.23,112.80 8.31,107.46 7.49,102.69 6.66,97.93 6.41,93.57 6.15,89.21 5.12,84.06 4.08,78.91 3.11,73.43 2.13,67.95 1.29,61.88 0.45,55.80 0.18,50.74 -0.08,45.67 -1.25,39.26 -2.42,32.84 -4.07,24.86 -5.71,16.87 -7.44,9.27 -9.17,1.66 -9.24,0.54 -9.31,-0.57 -9.10,-1.68 -8.90,-2.78 -8.43,-3.81 -7.97,-4.83 -7.28,-5.72 -6.58,-6.60 -5.70,-7.29 -4.81,-7.99 -3.78,-8.45 -2.76,-8.91 -1.65,-9.11 -0.54,-9.31 0.57,-9.24 1.69,-9.17 2.76,-8.83 3.84,-8.50 4.80,-7.91 5.76,-7.33 6.55,-6.53 7.35,-5.74 7.93,-4.77 8.51,-3.81 8.84,-2.74 9.17,-1.66 9.17,-1.66 L 9.17,-1.66 Z"></path></g><g transform="translate(487.575887044271 511.8182373046875) rotate(0 10.909016927083258 48.48490397135538)" stroke="none"><path fill="#0c8599" d="M 8.14,-1.35 Q 8.14,-1.35 9.14,7.07 10.15,15.49 11.55,21.68 12.94,27.87 14.32,34.03 15.69,40.19 17.25,48.35 18.81,56.51 20.37,63.53 21.94,70.55 23.89,77.47 25.84,84.40 27.05,87.33 28.26,90.27 28.41,91.56 28.56,92.86 28.29,94.13 28.02,95.40 27.36,96.52 26.69,97.64 25.71,98.48 24.72,99.33 23.52,99.82 22.31,100.31 21.02,100.39 19.72,100.47 18.46,100.13 17.21,99.79 16.13,99.07 15.05,98.35 14.25,97.32 13.46,96.29 13.04,95.06 12.61,93.83 12.60,92.53 12.59,91.23 13.00,90.00 13.41,88.76 14.19,87.72 14.97,86.68 16.04,85.94 17.11,85.21 18.36,84.85 19.61,84.49 20.91,84.55 22.21,84.62 23.42,85.09 24.63,85.56 25.63,86.40 26.62,87.23 27.30,88.34 27.98,89.45 28.27,90.72 28.55,91.99 28.42,93.28 28.29,94.57 27.75,95.76 27.21,96.94 26.33,97.89 25.44,98.84 24.29,99.46 23.15,100.07 21.87,100.29 20.59,100.51 19.30,100.31 18.02,100.11 16.87,99.51 15.71,98.91 14.81,97.97 13.91,97.03 13.36,95.85 12.80,94.68 12.80,94.68 12.80,94.68 12.28,91.55 11.76,88.41 9.64,81.05 7.51,73.68 6.05,66.76 4.58,59.84 2.30,51.59 0.01,43.35 -1.09,37.15 -2.21,30.95 -3.39,24.45 -4.57,17.95 -6.36,9.65 -8.14,1.35 -8.18,0.36 -8.23,-0.63 -8.03,-1.60 -7.84,-2.58 -7.41,-3.48 -6.99,-4.38 -6.36,-5.15 -5.74,-5.93 -4.95,-6.53 -4.15,-7.13 -3.24,-7.52 -2.32,-7.92 -1.34,-8.08 -0.36,-8.24 0.62,-8.17 1.61,-8.09 2.56,-7.78 3.50,-7.47 4.35,-6.94 5.19,-6.41 5.88,-5.70 6.58,-4.98 7.08,-4.12 7.58,-3.26 7.86,-2.31 8.14,-1.35 8.14,-1.35 L 8.14,-1.35 Z"></path></g><g transform="translate(393.0303955078125 698.4853108723983) rotate(0 4.8484293619792425 43.63616943359375)" stroke="none"><path fill="#0c8599" d="M 8.05,-2.01 Q 8.05,-2.01 9.74,6.45 11.44,14.91 12.44,22.38 13.43,29.86 14.48,36.95 15.53,44.04 15.72,55.16 15.91,66.28 16.37,72.26 16.83,78.23 17.24,80.75 17.65,83.27 17.48,84.56 17.31,85.86 16.73,87.03 16.16,88.21 15.24,89.14 14.32,90.07 13.15,90.66 11.98,91.24 10.69,91.43 9.40,91.61 8.11,91.37 6.82,91.13 5.68,90.49 4.54,89.86 3.66,88.89 2.78,87.92 2.26,86.72 1.74,85.52 1.62,84.22 1.51,82.92 1.82,81.65 2.13,80.38 2.83,79.27 3.52,78.17 4.54,77.34 5.55,76.52 6.78,76.06 8.00,75.60 9.31,75.56 10.62,75.52 11.87,75.89 13.12,76.27 14.19,77.03 15.25,77.79 16.02,78.84 16.79,79.90 17.18,81.15 17.57,82.40 17.54,83.70 17.52,85.01 17.07,86.24 16.63,87.47 15.81,88.49 15.00,89.52 13.90,90.23 12.80,90.94 11.54,91.26 10.27,91.58 8.96,91.48 7.66,91.38 6.46,90.87 5.25,90.36 4.28,89.49 3.30,88.63 2.65,87.49 2.00,86.36 1.75,85.07 1.49,83.79 1.49,83.79 1.49,83.79 1.73,81.26 1.97,78.72 2.05,72.79 2.12,66.87 1.40,56.56 0.67,46.26 -0.41,39.00 -1.51,31.74 -2.30,25.14 -3.08,18.53 -5.56,10.27 -8.05,2.01 -8.17,1.02 -8.29,0.02 -8.18,-0.96 -8.06,-1.95 -7.71,-2.89 -7.36,-3.83 -6.79,-4.65 -6.22,-5.48 -5.48,-6.14 -4.73,-6.81 -3.85,-7.28 -2.96,-7.74 -1.99,-7.99 -1.02,-8.23 -0.02,-8.23 0.97,-8.24 1.94,-8.00 2.91,-7.76 3.80,-7.30 4.69,-6.84 5.44,-6.18 6.19,-5.52 6.76,-4.70 7.33,-3.88 7.69,-2.94 8.05,-2.01 8.05,-2.01 L 8.05,-2.01 Z"></path></g><g transform="translate(310.6062825520835 802.7274576822965) rotate(0 24.242401123046875 94.54538981119549)" stroke="none"><path fill="#0c8599" d="M 7.15,-1.02 Q 7.15,-1.02 8.28,8.77 9.41,18.56 11.86,30.88 14.31,43.21 18.04,55.98 21.77,68.76 24.75,79.95 27.73,91.14 30.94,99.03 34.15,106.92 37.04,114.68 39.94,122.44 42.54,131.48 45.14,140.51 47.24,147.02 49.35,153.53 50.61,157.89 51.87,162.25 52.61,167.17 53.35,172.09 54.42,176.36 55.49,180.64 56.09,182.61 56.69,184.57 56.70,186.01 56.72,187.44 56.28,188.81 55.84,190.17 54.99,191.32 54.13,192.48 52.95,193.30 51.78,194.12 50.40,194.52 49.02,194.92 47.59,194.86 46.16,194.80 44.82,194.28 43.48,193.77 42.37,192.85 41.27,191.94 40.51,190.72 39.76,189.50 39.43,188.10 39.11,186.71 39.25,185.28 39.38,183.85 39.97,182.54 40.56,181.23 41.53,180.18 42.50,179.12 43.76,178.44 45.02,177.75 46.43,177.50 47.85,177.25 49.26,177.46 50.68,177.68 51.96,178.34 53.23,178.99 54.23,180.02 55.23,181.05 55.85,182.35 56.47,183.64 56.64,185.06 56.81,186.49 56.52,187.89 56.23,189.30 55.51,190.54 54.78,191.77 53.70,192.72 52.62,193.66 51.29,194.20 49.97,194.75 48.53,194.85 47.10,194.94 45.72,194.58 44.33,194.21 43.13,193.42 41.94,192.63 41.05,191.50 40.17,190.36 39.70,189.01 39.22,187.66 39.22,187.66 39.22,187.66 39.11,185.61 39.00,183.55 38.40,178.38 37.80,173.20 37.62,165.01 37.44,156.81 35.94,150.24 34.44,143.66 31.84,135.03 29.24,126.40 26.47,118.82 23.69,111.25 20.11,102.74 16.54,94.24 13.39,83.24 10.25,72.24 6.12,59.05 1.99,45.86 -0.92,33.16 -3.84,20.46 -5.49,10.74 -7.15,1.02 -7.17,0.15 -7.19,-0.72 -7.00,-1.57 -6.81,-2.42 -6.42,-3.20 -6.03,-3.98 -5.47,-4.64 -4.90,-5.30 -4.19,-5.81 -3.49,-6.32 -2.68,-6.65 -1.87,-6.98 -1.01,-7.10 -0.15,-7.22 0.71,-7.14 1.58,-7.05 2.40,-6.76 3.22,-6.46 3.95,-5.98 4.67,-5.51 5.27,-4.87 5.86,-4.23 6.28,-3.46 6.70,-2.70 6.92,-1.86 7.15,-1.02 7.15,-1.02 L 7.15,-1.02 Z"></path></g></svg>